<svg xmlns="http://www.w3.org/2000/svg" version="1.1" xmlns:xlink="http://www.w3.org/1999/xlink" xmlns:svgjs="http://svgjs.dev/svgjs" width="100%" height="100%" viewBox="0 0 1000 600"><rect width="1000" height="600" x="0" y="0" fill="rosybrown"/><g><rect width="333.3333333333333" height="333.3333333333333" y="77.77777587042934" fill="rosybrown" transform="matrix(2.2499999313354513,0,0,2.2499999313354517,0,-249.99999084472722)" x="55.55555725097656"/><path d="M149.65433830334655 169.4444459304632L218.867077022808 319.44444995456274L80.44159958388505 319.44444995456274L149.65433830334655 169.4444459304632ZM149.65433830334655 187.9929910656957L92.69008594490745 311.6499586339122L206.6185906617856 311.6499586339122L149.65433830334655 187.9929910656957ZM255.14369452267817 172.60912661704316L364.0028496212384 172.60912661704316L364.0028496212384 180.40361793769375L262.9381858433287 180.40361793769375L262.9381858433287 227.46359185109557L343.95987193956546 227.46359185109557L343.95987193956546 264.5899847205103L262.9381858433287 264.5899847205103L262.9381858433287 319.44444995456274L255.14369452267817 319.44444995456274L255.14369452267817 172.60912661704316Z " fill="purple" transform="matrix(2.2499999313354513,0,0,2.2499999313354517,0,-249.99999084472722)"/><path d="MNaN 244.4444461398655 " fill="black" transform="matrix(2.2499999313354513,0,0,2.2499999313354517,0,-249.99999084472722)"/></g></svg>